<svg width="46" height="32" viewBox="0 0 46 32" fill="none" xmlns="http://www.w3.org/2000/svg">
<path fill-rule="evenodd" clip-rule="evenodd" d="M9.21393 21.375C6.78972 20.9016 4.60538 19.6004 3.03468 17.6941C1.46399 15.7879 0.60458 13.395 0.603516 10.925C0.603516 5.05 5.37227 0.28125 11.2473 0.28125C17.1223 0.28125 21.891 5.05 21.891 10.925C21.891 18.7542 19.2535 23.6167 16.1577 26.6563C11.4181 31.3104 5.48268 31.7146 5.48268 31.7146C5.18705 31.7365 4.89131 31.6737 4.63006 31.5336C4.36881 31.3935 4.15287 31.1819 4.00752 30.9235C3.86217 30.6652 3.79341 30.3708 3.80931 30.0748C3.8252 29.7788 3.92508 29.4934 4.09727 29.2521C4.09727 29.2521 6.9181 25.2813 8.67643 22.3438C8.85977 22.0354 9.04518 21.6958 9.21393 21.375ZM11.2473 3.40625C7.09727 3.40625 3.72852 6.775 3.72852 10.925C3.72852 15.075 7.09727 18.4438 11.2473 18.4438C11.8369 18.4438 12.2494 18.6854 12.5494 19.0313C12.8014 19.3229 13.0389 19.7896 12.9577 20.475C12.8868 21.0688 12.2785 22.4104 11.3577 23.95C10.6577 25.1167 9.79727 26.4417 8.99935 27.6313C10.8526 26.904 12.5419 25.814 13.9681 24.425C16.6181 21.825 18.766 17.625 18.766 10.925C18.7655 8.93107 17.9731 7.01897 16.5632 5.60905C15.1533 4.19913 13.2412 3.4068 11.2473 3.40625ZM32.7181 21.375C30.2939 20.9016 28.1095 19.6004 26.5389 17.6941C24.9682 15.7879 24.1087 13.395 24.1077 10.925C24.1077 5.05 28.8764 0.28125 34.7514 0.28125C40.6264 0.28125 45.3952 5.05 45.3952 10.925C45.3952 18.7542 42.7577 23.6167 39.6618 26.6563C34.9223 31.3104 28.9869 31.7146 28.9869 31.7146C28.6912 31.7365 28.3955 31.6737 28.1342 31.5336C27.873 31.3935 27.657 31.1819 27.5117 30.9235C27.3663 30.6652 27.2976 30.3708 27.3135 30.0748C27.3294 29.7788 27.4293 29.4934 27.6014 29.2521C27.6014 29.2521 30.4223 25.2813 32.1806 22.3438C32.3639 22.0354 32.5494 21.6958 32.7181 21.375ZM34.7514 3.40625C30.6014 3.40625 27.2327 6.775 27.2327 10.925C27.2327 15.075 30.6014 18.4438 34.7514 18.4438C35.341 18.4438 35.7535 18.6854 36.0535 19.0313C36.3056 19.3229 36.5431 19.7896 36.4619 20.475C36.391 21.0688 35.7827 22.4104 34.8619 23.95C34.1619 25.1167 33.3014 26.4417 32.5035 27.6313C34.3568 26.904 36.0461 25.814 37.4723 24.425C40.1223 21.825 42.2702 17.625 42.2702 10.925C42.2696 8.93107 41.4773 7.01897 40.0674 5.60905C38.6575 4.19913 36.7454 3.4068 34.7514 3.40625Z" fill="#18BC2F"/>
</svg>
