<svg width="46" height="32" viewBox="0 0 46 32" fill="none" xmlns="http://www.w3.org/2000/svg">
<path fill-rule="evenodd" clip-rule="evenodd" d="M36.7861 21.375C39.2103 20.9016 41.3946 19.6004 42.9653 17.6941C44.536 15.7879 45.3954 13.395 45.3965 10.925C45.3965 5.05 40.6277 0.28125 34.7527 0.28125C28.8777 0.28125 24.109 5.05 24.109 10.925C24.109 18.7542 26.7465 23.6167 29.8423 26.6563C34.5819 31.3104 40.5173 31.7146 40.5173 31.7146C40.8129 31.7365 41.1087 31.6737 41.3699 31.5336C41.6312 31.3935 41.8471 31.1819 41.9925 30.9235C42.1378 30.6652 42.2066 30.3708 42.1907 30.0748C42.1748 29.7788 42.0749 29.4934 41.9027 29.2521C41.9027 29.2521 39.0819 25.2813 37.3236 22.3438C37.1402 22.0354 36.9548 21.6958 36.7861 21.375ZM34.7527 3.40625C38.9027 3.40625 42.2715 6.775 42.2715 10.925C42.2715 15.075 38.9027 18.4438 34.7527 18.4438C34.1631 18.4438 33.7506 18.6854 33.4506 19.0313C33.1986 19.3229 32.9611 19.7896 33.0423 20.475C33.1132 21.0688 33.7215 22.4104 34.6423 23.95C35.3423 25.1167 36.2027 26.4417 37.0007 27.6313C35.1474 26.904 33.4581 25.814 32.0319 24.425C29.3819 21.825 27.234 17.625 27.234 10.925C27.2345 8.93107 28.0269 7.01897 29.4368 5.60905C30.8467 4.19913 32.7588 3.4068 34.7527 3.40625ZM13.2819 21.375C15.7061 20.9016 17.8905 19.6004 19.4611 17.6941C21.0318 15.7879 21.8913 13.395 21.8923 10.925C21.8923 5.05 17.1236 0.28125 11.2486 0.28125C5.37356 0.28125 0.604813 5.05 0.604813 10.925C0.604813 18.7542 3.24232 23.6167 6.33815 26.6563C11.0777 31.3104 17.0131 31.7146 17.0131 31.7146C17.3088 31.7365 17.6045 31.6737 17.8658 31.5336C18.127 31.3935 18.343 31.1819 18.4883 30.9235C18.6337 30.6652 18.7024 30.3708 18.6865 30.0748C18.6706 29.7788 18.5707 29.4934 18.3986 29.2521C18.3986 29.2521 15.5777 25.2813 13.8194 22.3438C13.6361 22.0354 13.4506 21.6958 13.2819 21.375ZM11.2486 3.40625C15.3986 3.40625 18.7673 6.775 18.7673 10.925C18.7673 15.075 15.3986 18.4438 11.2486 18.4438C10.659 18.4438 10.2465 18.6854 9.94648 19.0313C9.6944 19.3229 9.4569 19.7896 9.53815 20.475C9.60898 21.0688 10.2173 22.4104 11.1381 23.95C11.8381 25.1167 12.6986 26.4417 13.4965 27.6313C11.6432 26.904 9.95395 25.814 8.52773 24.425C5.87773 21.825 3.72981 17.625 3.72981 10.925C3.73037 8.93107 4.5227 7.01897 5.93262 5.60905C7.34254 4.19913 9.25463 3.4068 11.2486 3.40625Z" fill="#18BC2F"/>
</svg>
